<svg width="101" height="18" viewBox="0 0 101 18" fill="none" xmlns="http://www.w3.org/2000/svg">
<path d="M9.98 14.52H4.74L3.9 17H0.32L5.4 2.96H9.36L14.44 17H10.82L9.98 14.52ZM9.1 11.88L7.36 6.74L5.64 11.88H9.1ZM15.3061 11.4C15.3061 10.2533 15.5194 9.24667 15.9461 8.38C16.3861 7.51333 16.9794 6.84667 17.7261 6.38C18.4728 5.91333 19.3061 5.68 20.2261 5.68C20.9594 5.68 21.6261 5.83333 22.2261 6.14C22.8394 6.44667 23.3194 6.86 23.6661 7.38V2.2H27.0861V17H23.6661V15.4C23.3461 15.9333 22.8861 16.36 22.2861 16.68C21.6994 17 21.0128 17.16 20.2261 17.16C19.3061 17.16 18.4728 16.9267 17.7261 16.46C16.9794 15.98 16.3861 15.3067 15.9461 14.44C15.5194 13.56 15.3061 12.5467 15.3061 11.4ZM23.6661 11.42C23.6661 10.5667 23.4261 9.89333 22.9461 9.4C22.4794 8.90667 21.9061 8.66 21.2261 8.66C20.5461 8.66 19.9661 8.90667 19.4861 9.4C19.0194 9.88 18.7861 10.5467 18.7861 11.4C18.7861 12.2533 19.0194 12.9333 19.4861 13.44C19.9661 13.9333 20.5461 14.18 21.2261 14.18C21.9061 14.18 22.4794 13.9333 22.9461 13.44C23.4261 12.9467 23.6661 12.2733 23.6661 11.42ZM31.2803 4.68C30.6803 4.68 30.187 4.50667 29.8003 4.16C29.427 3.8 29.2403 3.36 29.2403 2.84C29.2403 2.30667 29.427 1.86667 29.8003 1.52C30.187 1.16 30.6803 0.979999 31.2803 0.979999C31.867 0.979999 32.347 1.16 32.7203 1.52C33.107 1.86667 33.3003 2.30667 33.3003 2.84C33.3003 3.36 33.107 3.8 32.7203 4.16C32.347 4.50667 31.867 4.68 31.2803 4.68ZM32.9803 5.84V17H29.5603V5.84H32.9803ZM34.7788 11.42C34.7788 10.26 35.0121 9.24667 35.4788 8.38C35.9588 7.51333 36.6188 6.84667 37.4588 6.38C38.3121 5.91333 39.2854 5.68 40.3788 5.68C41.7788 5.68 42.9454 6.04667 43.8788 6.78C44.8254 7.51333 45.4454 8.54667 45.7388 9.88H42.0988C41.7921 9.02667 41.1988 8.6 40.3188 8.6C39.6921 8.6 39.1921 8.84667 38.8188 9.34C38.4454 9.82 38.2588 10.5133 38.2588 11.42C38.2588 12.3267 38.4454 13.0267 38.8188 13.52C39.1921 14 39.6921 14.24 40.3188 14.24C41.1988 14.24 41.7921 13.8133 42.0988 12.96H45.7388C45.4454 14.2667 44.8254 15.2933 43.8788 16.04C42.9321 16.7867 41.7654 17.16 40.3788 17.16C39.2854 17.16 38.3121 16.9267 37.4588 16.46C36.6188 15.9933 35.9588 15.3267 35.4788 14.46C35.0121 13.5933 34.7788 12.58 34.7788 11.42ZM49.2881 4.68C48.6881 4.68 48.1948 4.50667 47.8081 4.16C47.4348 3.8 47.2481 3.36 47.2481 2.84C47.2481 2.30667 47.4348 1.86667 47.8081 1.52C48.1948 1.16 48.6881 0.979999 49.2881 0.979999C49.8748 0.979999 50.3548 1.16 50.7281 1.52C51.1148 1.86667 51.3081 2.30667 51.3081 2.84C51.3081 3.36 51.1148 3.8 50.7281 4.16C50.3548 4.50667 49.8748 4.68 49.2881 4.68ZM50.9881 5.84V17H47.5681V5.84H50.9881ZM58.5466 17.16C57.4532 17.16 56.4666 16.9267 55.5866 16.46C54.7199 15.9933 54.0332 15.3267 53.5266 14.46C53.0332 13.5933 52.7866 12.58 52.7866 11.42C52.7866 10.2733 53.0399 9.26667 53.5466 8.4C54.0532 7.52 54.7466 6.84667 55.6266 6.38C56.5066 5.91333 57.4932 5.68 58.5866 5.68C59.6799 5.68 60.6666 5.91333 61.5466 6.38C62.4266 6.84667 63.1199 7.52 63.6266 8.4C64.1332 9.26667 64.3866 10.2733 64.3866 11.42C64.3866 12.5667 64.1266 13.58 63.6066 14.46C63.0999 15.3267 62.3999 15.9933 61.5066 16.46C60.6266 16.9267 59.6399 17.16 58.5466 17.16ZM58.5466 14.2C59.1999 14.2 59.7532 13.96 60.2066 13.48C60.6732 13 60.9066 12.3133 60.9066 11.42C60.9066 10.5267 60.6799 9.84 60.2266 9.36C59.7866 8.88 59.2399 8.64 58.5866 8.64C57.9199 8.64 57.3666 8.88 56.9266 9.36C56.4866 9.82667 56.2666 10.5133 56.2666 11.42C56.2666 12.3133 56.4799 13 56.9066 13.48C57.3466 13.96 57.8932 14.2 58.5466 14.2ZM73.0009 5.72C74.3076 5.72 75.3476 6.14667 76.1209 7C76.9076 7.84 77.3009 9 77.3009 10.48V17H73.9009V10.94C73.9009 10.1933 73.7076 9.61333 73.3209 9.2C72.9343 8.78667 72.4143 8.58 71.7609 8.58C71.1076 8.58 70.5876 8.78667 70.2009 9.2C69.8143 9.61333 69.6209 10.1933 69.6209 10.94V17H66.2009V5.84H69.6209V7.32C69.9676 6.82667 70.4343 6.44 71.0209 6.16C71.6076 5.86667 72.2676 5.72 73.0009 5.72ZM78.9975 11.4C78.9975 10.2533 79.2108 9.24667 79.6375 8.38C80.0775 7.51333 80.6708 6.84667 81.4175 6.38C82.1642 5.91333 82.9975 5.68 83.9175 5.68C84.7042 5.68 85.3908 5.84 85.9775 6.16C86.5775 6.48 87.0375 6.9 87.3575 7.42V5.84H90.7775V17H87.3575V15.42C87.0242 15.94 86.5575 16.36 85.9575 16.68C85.3708 17 84.6842 17.16 83.8975 17.16C82.9908 17.16 82.1642 16.9267 81.4175 16.46C80.6708 15.98 80.0775 15.3067 79.6375 14.44C79.2108 13.56 78.9975 12.5467 78.9975 11.4ZM87.3575 11.42C87.3575 10.5667 87.1175 9.89333 86.6375 9.4C86.1708 8.90667 85.5975 8.66 84.9175 8.66C84.2375 8.66 83.6575 8.90667 83.1775 9.4C82.7108 9.88 82.4775 10.5467 82.4775 11.4C82.4775 12.2533 82.7108 12.9333 83.1775 13.44C83.6575 13.9333 84.2375 14.18 84.9175 14.18C85.5975 14.18 86.1708 13.9333 86.6375 13.44C87.1175 12.9467 87.3575 12.2733 87.3575 11.42ZM96.6717 7.7C97.0717 7.08667 97.5717 6.60667 98.1717 6.26C98.7717 5.9 99.4384 5.72 100.172 5.72V9.34H99.2317C98.3784 9.34 97.7384 9.52667 97.3117 9.9C96.8851 10.26 96.6717 10.9 96.6717 11.82V17H93.2517V5.84H96.6717V7.7Z" fill="black"/>
</svg>
