<svg width="170" height="57" viewBox="0 0 170 57" fill="none" xmlns="http://www.w3.org/2000/svg">
<path d="M54.8724 17.5391L60.0602 32.3515L65.285 17.5391H70.3529L62.4156 38.2073H57.7389L49.7617 17.5391H54.8724Z" fill="white"/>
<path d="M73.8904 29.1309C74.2045 30.7012 74.9439 32.0717 76.1117 33.2366C77.2766 34.4014 78.7755 34.9839 80.6114 34.9839C81.3451 34.9839 82.0189 34.8725 82.6357 34.6498C83.2524 34.4271 83.8091 34.1445 84.3059 33.8047C84.8027 33.4907 85.2224 33.1309 85.5622 32.7226C85.9019 32.3172 86.176 31.9318 86.3873 31.5634H90.9469C90.0818 33.7647 88.7713 35.5378 87.0183 36.8883C85.2624 38.2387 83.1296 38.9125 80.6142 38.9125C79.0696 38.9125 77.6278 38.6242 76.2916 38.0474C74.9554 37.4707 73.7905 36.6855 72.794 35.6891C71.7976 34.6927 71.0124 33.5278 70.4357 32.1916C69.859 30.8554 69.5706 29.4135 69.5706 27.8689C69.5706 26.3243 69.859 24.9538 70.4357 23.6062C71.0124 22.2586 71.7976 21.0851 72.794 20.0887C73.7905 19.0922 74.9554 18.3014 76.2916 17.7104C77.6278 17.1222 79.0668 16.8253 80.6142 16.8253C81.8962 16.8253 83.2609 17.0937 84.6999 17.6304C86.1418 18.1672 87.4123 18.9866 88.5115 20.0858C89.5593 21.108 90.3845 22.3699 90.9869 23.8774C91.5893 25.3849 91.7749 27.1323 91.5379 29.1223H73.8961L73.8904 29.1309ZM87.1325 25.5163C86.7128 24.0487 85.8876 22.8981 84.6571 22.0587C83.4265 21.2193 82.0761 20.8025 80.6114 20.8025C79.0411 20.8025 77.6906 21.2679 76.5628 22.1958C75.435 23.1265 74.6384 24.2315 74.1673 25.5163H87.1353H87.1325Z" fill="white"/>
<path d="M109.02 38.1674V26.1844C109.02 25.582 108.894 24.9652 108.646 24.3371C108.397 23.709 108.038 23.1465 107.567 22.6469C107.096 22.1244 106.533 21.699 105.876 21.3706C105.22 21.0423 104.489 20.8796 103.675 20.8796C102.861 20.8796 102.085 21.0366 101.417 21.3507C100.749 21.6647 100.192 22.0701 99.7464 22.5698C99.2753 23.0951 98.9156 23.6633 98.6672 24.28C98.4188 24.8967 98.2932 25.5163 98.2932 26.1473V38.1702H93.7364V17.5391H98.3331V20.2885C98.3588 20.2628 98.5302 20.0658 98.8442 19.7004C99.1583 19.3349 99.6294 18.9295 100.26 18.4813C100.863 18.0615 101.602 17.6761 102.479 17.3221C103.355 16.968 104.372 16.791 105.525 16.791C106.679 16.791 107.829 17.028 108.826 17.4991C109.822 17.9702 110.673 18.5869 111.381 19.3464C112.089 20.1058 112.637 20.9709 113.031 21.9388C113.425 22.9096 113.62 23.8917 113.62 24.8853V38.1674H109.02Z" fill="white"/>
<path d="M115.461 17.6161L120.058 17.6561V29.405C120.058 30.0331 120.175 30.6612 120.412 31.2922C120.649 31.9232 121 32.4857 121.474 32.9824C121.945 33.5078 122.508 33.9246 123.164 34.2416C123.818 34.5556 124.566 34.7127 125.403 34.7127C126.239 34.7127 126.956 34.5613 127.624 34.2615C128.292 33.9618 128.86 33.5478 129.334 33.0224C129.78 32.5256 130.134 31.9603 130.396 31.3322C130.659 30.7041 130.79 30.0731 130.79 29.4449V17.6561L135.35 17.6161V38.2444H130.753V35.495C130.702 35.5463 130.516 35.7576 130.202 36.1231C129.888 36.4885 129.417 36.8825 128.789 37.3022C128.186 37.722 127.447 38.1017 126.568 38.4414C125.688 38.7812 124.689 38.9525 123.561 38.9525C122.33 38.9525 121.217 38.7241 120.221 38.2644C119.224 37.8048 118.373 37.2109 117.668 36.4771C116.96 35.7177 116.418 34.8526 116.038 33.8847C115.658 32.9168 115.467 31.9203 115.467 30.8982V17.6161H115.461Z" fill="white"/>
<path d="M141.668 29.1309C141.982 30.7012 142.722 32.0717 143.887 33.2366C145.052 34.4014 146.551 34.9839 148.386 34.9839C149.12 34.9839 149.794 34.8725 150.411 34.6498C151.027 34.4271 151.581 34.1445 152.081 33.8047C152.578 33.4907 152.997 33.1309 153.337 32.7226C153.677 32.3172 153.951 31.9318 154.162 31.5634H158.722C157.857 33.7647 156.546 35.5378 154.793 36.8883C153.037 38.2387 150.905 38.9125 148.389 38.9125C146.842 38.9125 145.403 38.6242 144.067 38.0474C142.73 37.4707 141.565 36.6855 140.569 35.6891C139.573 34.6927 138.787 33.5278 138.211 32.1916C137.634 30.8554 137.346 29.4135 137.346 27.8689C137.346 26.3243 137.634 24.9538 138.211 23.6062C138.787 22.2586 139.573 21.0851 140.569 20.0887C141.565 19.0922 142.73 18.3014 144.067 17.7104C145.403 17.1222 146.842 16.8253 148.389 16.8253C149.671 16.8253 151.036 17.0937 152.475 17.6304C153.917 18.1672 155.187 18.9866 156.287 20.0858C157.334 21.108 158.159 22.3699 158.762 23.8774C159.364 25.3849 159.547 27.1323 159.313 29.1223H141.671L141.668 29.1309ZM154.91 25.5163C154.491 24.0487 153.666 22.8981 152.435 22.0587C151.204 21.2193 149.854 20.8025 148.386 20.8025C146.816 20.8025 145.466 21.2679 144.338 22.1958C143.21 23.1265 142.413 24.2315 141.942 25.5163H154.91Z" fill="white"/>
<path d="M136.974 47.9947L135.081 42.8983H135.955L137.637 47.5122H137.223L138.973 42.8983H139.752L141.463 47.5122H141.057L142.779 42.8983H143.607L141.703 47.9947H140.817L139.213 43.7834H139.481L137.857 47.9947H136.972H136.974Z" fill="white"/>
<path d="M146.576 48.0518C146.071 48.0518 145.617 47.9405 145.217 47.7149C144.817 47.4893 144.501 47.181 144.269 46.787C144.038 46.393 143.924 45.9447 143.924 45.4451C143.924 44.9454 144.038 44.4915 144.269 44.1032C144.501 43.7149 144.815 43.4094 145.211 43.1867C145.608 42.964 146.065 42.8498 146.576 42.8498C147.087 42.8498 147.536 42.9611 147.935 43.181C148.335 43.4008 148.649 43.7092 148.877 44.0975C149.106 44.4886 149.22 44.9369 149.22 45.4422C149.22 45.9476 149.106 46.3958 148.877 46.787C148.649 47.1781 148.335 47.4865 147.935 47.7092C147.536 47.9347 147.082 48.0461 146.576 48.0461V48.0518ZM146.576 47.2467C146.902 47.2467 147.196 47.1724 147.456 47.0268C147.715 46.8812 147.918 46.6699 148.067 46.3958C148.215 46.1246 148.286 45.8077 148.286 45.4479C148.286 45.0882 148.212 44.7684 148.067 44.5C147.918 44.2345 147.715 44.0261 147.456 43.8805C147.196 43.732 146.902 43.6606 146.576 43.6606C146.251 43.6606 145.957 43.7349 145.703 43.8805C145.446 44.0289 145.24 44.2345 145.086 44.5C144.932 44.7656 144.855 45.0825 144.855 45.4479C144.855 45.8134 144.932 46.1217 145.086 46.3958C145.24 46.6699 145.446 46.8784 145.703 47.0268C145.96 47.1753 146.251 47.2467 146.576 47.2467Z" fill="white"/>
<path d="M150.499 47.9947V42.8983H151.384V44.283L151.299 43.9376C151.439 43.5864 151.675 43.3151 152.01 43.1296C152.344 42.944 152.752 42.8498 153.24 42.8498V43.7434C153.203 43.7377 153.166 43.7349 153.129 43.7349H153.029C152.535 43.7349 152.144 43.8833 151.855 44.1774C151.567 44.4715 151.421 44.8997 151.421 45.4565V47.9947H150.499Z" fill="white"/>
<path d="M154.374 47.9947V40.8626H155.296V47.9947H154.374ZM155.124 46.7641L155.144 45.5821L158.077 42.9012H159.193L156.943 45.111L156.444 45.5336L155.127 46.7641H155.124ZM158.268 47.9947L156.269 45.5136L156.866 44.7741L159.404 47.9947H158.268Z" fill="white"/>
<path d="M25.0769 27.946H25.0084V27.9631H25.0769V27.946Z" fill="#5E0E99"/>
<path d="M42.1849 26.547L42.1734 27.1722C42.1477 28.38 41.1456 29.345 39.935 29.3164H39.8665L32.9314 29.2793L39.601 36.2087C40.4404 37.0824 40.4118 38.4671 39.5439 39.3094L39.0899 39.7405C38.2191 40.5828 36.8315 40.5542 35.9921 39.6806L29.0798 32.4971L29.0627 39.732C29.0341 40.9425 28.0348 41.9018 26.8214 41.8762L26.199 41.8619C24.9856 41.8333 24.0291 40.834 24.0548 39.6235L24.2775 29.2279V29.2108H24.209L13.6993 29.1994C12.4887 29.1994 11.5094 28.2144 11.5094 27.0038V26.3814C11.5122 25.1679 12.4944 24.1886 13.705 24.1915L20.8 24.1972L13.9105 17.265C13.0597 16.4027 13.0626 15.018 13.922 14.1643L14.3674 13.7217C15.2239 12.8681 16.6115 12.8738 17.4623 13.7303L24.2604 20.574L24.2975 13.5761C24.3032 12.7224 24.7971 11.983 25.5109 11.6289C25.5537 11.6061 25.5994 11.5861 25.6423 11.5633C25.9221 11.4348 26.2333 11.3634 26.5587 11.3634H27.184C28.3917 11.3691 29.3739 12.3484 29.3682 13.5619L29.3596 20.6226L36.2034 13.8274C37.0599 12.9737 38.4504 12.9766 39.304 13.8359L39.7437 14.2813C40.5946 15.1379 40.5917 16.5283 39.7323 17.382L32.9143 24.1572L40.0435 24.3086C41.2512 24.3371 42.2106 25.3364 42.1849 26.547Z" fill="white"/>
<path d="M29.1997 24.1572L29.1712 40.5685C29.1683 41.8362 28.1376 42.8669 26.87 42.8669H26.2161C24.9456 42.8669 23.9178 41.8362 23.9206 40.5656L23.9349 33.128L16.6572 40.3572C15.7578 41.2509 14.3017 41.248 13.408 40.3487L12.9455 39.8833C12.0518 38.9839 12.0576 37.5278 12.9598 36.6313L20.2346 29.405H12.777C11.5065 29.3992 10.4815 28.3714 10.4844 27.1009V26.447C10.4872 25.1765 11.5179 24.1487 12.7885 24.1515L29.1997 24.1572Z" fill="url(#paint0_linear_925_1241)"/>
<defs>
<linearGradient id="paint0_linear_925_1241" x1="20.4459" y1="23.609" x2="19.2668" y2="42.4358" gradientUnits="userSpaceOnUse">
<stop stop-color="#CBA8F0"/>
<stop offset="1" stop-color="#551A94"/>
</linearGradient>
</defs>
</svg>
